<svg xmlns="http://www.w3.org/2000/svg" xmlns:xlink="http://www.w3.org/1999/xlink" x="0" y="0" version="1.1" viewBox="0 0 800 800" xml:space="preserve" style="enable-background:new 0 0 800 800"><style type="text/css">.st0{fill:url(#SVGID_1_)}.st1{fill:url(#SVGID_2_)}.st2{fill:url(#SVGID_3_)}.st3{fill:url(#SVGID_4_)}.st4{fill:url(#SVGID_5_)}.st5{fill:url(#SVGID_6_)}.st6{fill:url(#SVGID_7_)}.st7{fill:url(#SVGID_8_)}.st8{fill:url(#SVGID_9_)}.st9{fill:url(#SVGID_10_)}.st10{fill:url(#SVGID_11_)}.st11{fill:url(#SVGID_12_)}.st12{fill:url(#SVGID_13_)}.st13{fill:url(#SVGID_14_)}.st14{fill:url(#SVGID_15_)}.st15{fill:url(#SVGID_16_)}.st16{fill:url(#SVGID_17_)}.st17{fill:url(#SVGID_18_)}.st18{fill:url(#SVGID_19_)}.st19{fill:url(#SVGID_20_)}.st20{fill:url(#SVGID_21_)}.st21{fill:url(#SVGID_22_)}</style><g id="暂无内容"><g><g><linearGradient id="SVGID_1_" x1="404.795" x2="404.795" y1="516.135" y2="665.773" gradientUnits="userSpaceOnUse"><stop offset="0" style="stop-color:#d4dbe5"/><stop offset="1" style="stop-color:#fff"/></linearGradient><ellipse cx="404.8" cy="590.95" class="st0" rx="294.54" ry="74.82"/><linearGradient id="SVGID_2_" x1="396.872" x2="396.872" y1="445.156" y2="130.805" gradientUnits="userSpaceOnUse"><stop offset=".112" style="stop-color:#fff"/><stop offset=".92" style="stop-color:#e2e6ed"/></linearGradient><polygon points="574.09 267.29 574.09 148.02 550.16 130.81 445.59 172.38 445.59 294.17 421.65 294.17 421.65 260.57 375.87 260.57 375.87 292.07 354.04 292.07 354.04 233.28 314.56 233.28 314.56 337.43 303.64 337.43 303.64 153.9 210.41 153.9 210.41 322.31 162.95 322.31 162.95 384.68 135.66 384.68 135.66 445.16 658.09 445.16 658.09 440.32 658.09 384.68 658.09 267.29" class="st1"/><linearGradient id="SVGID_3_" x1="153.137" x2="153.137" y1="370.103" y2="339.718" gradientUnits="userSpaceOnUse"><stop offset=".112" style="stop-color:#f1f3f6"/><stop offset=".92" style="stop-color:#d2d9e3"/></linearGradient><circle cx="153.14" cy="354.91" r="15.19" class="st2"/><linearGradient id="SVGID_4_" x1="604.749" x2="604.749" y1="283.604" y2="240.476" gradientUnits="userSpaceOnUse"><stop offset=".112" style="stop-color:#f1f3f6"/><stop offset=".92" style="stop-color:#d2d9e3"/></linearGradient><circle cx="604.75" cy="262.04" r="21.56" class="st3"/><linearGradient id="SVGID_5_" x1="-2070.814" x2="-2070.814" y1="3234.908" y2="3210.404" gradientTransform="matrix(0 -1 1 0 -2639.4705 -1501.9823)" gradientUnits="userSpaceOnUse"><stop offset=".112" style="stop-color:#f1f3f6"/><stop offset=".92" style="stop-color:#d2d9e3"/></linearGradient><circle cx="583.19" cy="568.83" r="12.25" class="st4"/></g><g><linearGradient id="SVGID_6_" x1="166.702" x2="305.67" y1="447.742" y2="447.742" gradientUnits="userSpaceOnUse"><stop offset="0" style="stop-color:#d4dbe5"/><stop offset="1" style="stop-color:#fff"/></linearGradient><polygon points="194.82 432.87 305.67 432.87 287.79 462.61 166.7 462.61" class="st5"/><linearGradient id="SVGID_7_" x1="170.154" x2="216.148" y1="414.497" y2="414.497" gradientUnits="userSpaceOnUse"><stop offset=".112" style="stop-color:#b2c5d6"/><stop offset=".92" style="stop-color:#d2d9e3"/></linearGradient><polygon points="216.15 412.03 204.8 432.94 214.3 432.94 214.3 448.78 170.15 462.09 172.81 452.68 215.9 366.9" class="st6"/><linearGradient id="SVGID_8_" x1="263.622" x2="285.16" y1="531.828" y2="531.828" gradientUnits="userSpaceOnUse"><stop offset=".112" style="stop-color:#c9d5e2"/><stop offset=".92" style="stop-color:#d2d9e3"/></linearGradient><polygon points="285.16 501.83 285.16 533.91 263.62 561.83 263.62 504.95" class="st7"/><linearGradient id="SVGID_9_" x1="204.434" x2="204.434" y1="561.826" y2="327.554" gradientUnits="userSpaceOnUse"><stop offset=".327" style="stop-color:#e4e8ef"/><stop offset="1" style="stop-color:#d2d9e3"/></linearGradient><path d="M262.14,462.61V327.55h-67.33l-73.74,136.23v39.95h93.47v58.09h49.08v-56.88h24.17v-42.34H262.14z M214.05,462.09h-43.9l43.9-87.27V462.09z" class="st8"/><linearGradient id="SVGID_10_" x1="287.791" x2="305.793" y1="468.91" y2="468.91" gradientUnits="userSpaceOnUse"><stop offset=".112" style="stop-color:#c9d5e2"/><stop offset=".92" style="stop-color:#d2d9e3"/></linearGradient><path d="M287.79,504.95c0.25-0.52,18-36.1,18-36.1l-0.12-35.97l-17.88,29.74V504.95z" class="st9"/><linearGradient id="SVGID_11_" x1="194.816" x2="284.184" y1="322.332" y2="322.332" gradientUnits="userSpaceOnUse"><stop offset="0" style="stop-color:#d4dbe5"/><stop offset="1" style="stop-color:#fff"/></linearGradient><polygon points="194.82 327.55 226.26 317.43 284.18 317.11 262.14 327.55" class="st10"/><linearGradient id="SVGID_12_" x1="261.896" x2="284.173" y1="389.78" y2="389.78" gradientUnits="userSpaceOnUse"><stop offset=".112" style="stop-color:#c9d5e2"/><stop offset=".92" style="stop-color:#d2d9e3"/></linearGradient><polygon points="261.9 462.52 284.17 432.83 284.17 317.04 262.14 327.55" class="st11"/><linearGradient id="SVGID_13_" x1="320.262" x2="473" y1="422.852" y2="422.852" gradientUnits="userSpaceOnUse"><stop offset="0" style="stop-color:#d4dbe5"/><stop offset="1" style="stop-color:#fff"/></linearGradient><path d="M396.63,314.11c-49.35,0-76.37,48.68-76.37,108.74c0,60.05,34.19,108.74,76.37,108.74 S473,482.91,473,422.85C473,362.8,451.1,316.19,396.63,314.11z M395.56,525.36c-21.37,0-29.92-34.71-29.92-78.26 c0-43.56,6.58-79.48,29.92-79.48c23.02,0,29.27,35.4,29.27,78.96S416.11,525.36,395.56,525.36z" class="st12"/><linearGradient id="SVGID_14_" x1="395.685" x2="395.685" y1="567.172" y2="324.33" gradientUnits="userSpaceOnUse"><stop offset=".327" style="stop-color:#e4e8ef"/><stop offset="1" style="stop-color:#d2d9e3"/></linearGradient><path d="M395.69,324.33c-43.79,0-79.29,32.73-79.29,121.42c0,86.01,35.5,121.42,79.29,121.42 s79.29-38.53,79.29-121.42C474.97,361.21,439.47,324.33,395.69,324.33z M395.56,525.36c-21.37,0-29.92-34.71-29.92-78.26 c0-43.56,6.58-79.48,29.92-79.48c23.02,0,29.27,35.4,29.27,78.96S416.11,525.36,395.56,525.36z" class="st13"/><linearGradient id="SVGID_15_" x1="365.639" x2="424.827" y1="453.644" y2="453.644" gradientUnits="userSpaceOnUse"><stop offset="0" style="stop-color:#d4dbe5"/><stop offset="1" style="stop-color:#fff"/></linearGradient><path d="M423.38,414.85c-1.71,67.97-16.48,71.38-26.18,71.38c-10.03,0-22.36-10.91-23.35-45.71 c-1.81-27.94-0.18-47.04,1.65-58.58c-7.37,14.43-9.87,38.34-9.87,65.16c0,43.56,8.55,78.26,29.92,78.26 c20.55,0,29.27-35.22,29.27-78.78C424.83,435.29,424.4,424.56,423.38,414.85z" class="st14"/><linearGradient id="SVGID_16_" x1="556.726" x2="648.509" y1="323.756" y2="323.756" gradientUnits="userSpaceOnUse"><stop offset="0" style="stop-color:#d4dbe5"/><stop offset="1" style="stop-color:#fff"/></linearGradient><polygon points="556.73 318.36 615.36 318.23 648.51 329.29 581.18 329.29" class="st15"/><linearGradient id="SVGID_17_" x1="548.896" x2="669.691" y1="453.553" y2="453.553" gradientUnits="userSpaceOnUse"><stop offset="0" style="stop-color:#d4dbe5"/><stop offset="1" style="stop-color:#fff"/></linearGradient><polygon points="646.99 443.93 669.69 464.34 548.9 463.93 560.49 442.76" class="st16"/><linearGradient id="SVGID_18_" x1="545.999" x2="602.72" y1="419.216" y2="419.216" gradientUnits="userSpaceOnUse"><stop offset=".112" style="stop-color:#c9d5e2"/><stop offset=".92" style="stop-color:#d2d9e3"/></linearGradient><polygon points="599.76 372.98 546 465.97 548.9 463.93 574.61 448.39 596.64 464.93 602.72 372.47" class="st17"/><linearGradient id="SVGID_19_" x1="488.167" x2="581.183" y1="391.934" y2="391.934" gradientUnits="userSpaceOnUse"><stop offset=".321" style="stop-color:#e6eaf0"/><stop offset="1" style="stop-color:#d2d9e3"/></linearGradient><polygon points="501.86 465.51 488.17 436.01 556.73 318.36 581.18 329.29" class="st18"/><linearGradient id="SVGID_20_" x1="488.082" x2="501.861" y1="470.736" y2="470.736" gradientUnits="userSpaceOnUse"><stop offset=".112" style="stop-color:#c9d5e2"/><stop offset=".92" style="stop-color:#d2d9e3"/></linearGradient><path d="M501.86,505.47l-13.57-35.17c0,0-0.37-34.8-0.12-34.28c0.25,0.52,13.69,29.5,13.69,29.5V505.47z" class="st19"/><linearGradient id="SVGID_21_" x1="568.687" x2="595.329" y1="532.055" y2="532.055" gradientUnits="userSpaceOnUse"><stop offset=".112" style="stop-color:#c9d5e2"/><stop offset=".92" style="stop-color:#d2d9e3"/></linearGradient><polygon points="568.69 501.2 568.69 536.53 595.33 563.56 595.33 505.47 595.2 500.55" class="st20"/><linearGradient id="SVGID_22_" x1="585.776" x2="585.776" y1="563.558" y2="329.286" gradientUnits="userSpaceOnUse"><stop offset=".327" style="stop-color:#e4e8ef"/><stop offset="1" style="stop-color:#d2d9e3"/></linearGradient><path d="M642.93,464.34l5.58-135.06h-67.33l-79.32,136.23v39.95h93.47v58.09h49.08v-56.88h25.29v-42.34H642.93z M594.84,463.82h-43.9l49.48-87.27L594.84,463.82z" class="st21"/></g></g></g></svg>